<mxfile host="app.diagrams.net" modified="2024-06-17T21:36:35.153Z" agent="Mozilla/5.0 (Windows NT 10.0; Win64; x64) AppleWebKit/537.36 (KHTML, like Gecko) Chrome/125.0.0.0 Safari/537.36" etag="iHchbHWXeKoWftGtfZGl" version="24.5.5" type="google">
  <diagram name="PÃ¡gina-1" id="LsmGkmER8wEdNiZBodtZ">
    <mxGraphModel grid="1" page="1" gridSize="10" guides="1" tooltips="1" connect="1" arrows="1" fold="1" pageScale="1" pageWidth="1100" pageHeight="1200" math="0" shadow="0">
      <root>
        <mxCell id="0" />
        <mxCell id="1" parent="0" />
        <mxCell id="uaeYe4_tYvJVXIgmSCOc-1" value="sd:&amp;nbsp; recoleccion de donaciones" style="shape=umlFrame;whiteSpace=wrap;html=1;pointerEvents=0;width=80;height=50;" vertex="1" parent="1">
          <mxGeometry x="2235" y="30" width="1030" height="1057" as="geometry" />
        </mxCell>
        <mxCell id="uaeYe4_tYvJVXIgmSCOc-2" value="LoginClicked()" style="text;html=1;align=center;verticalAlign=middle;resizable=0;points=[];autosize=1;strokeColor=none;fillColor=none;" vertex="1" parent="1">
          <mxGeometry x="2390" y="167" width="100" height="30" as="geometry" />
        </mxCell>
        <mxCell id="uaeYe4_tYvJVXIgmSCOc-3" value="switchToLoginPage()" style="text;html=1;align=center;verticalAlign=middle;resizable=0;points=[];autosize=1;strokeColor=none;fillColor=none;" vertex="1" parent="1">
          <mxGeometry x="2390" y="217" width="130" height="30" as="geometry" />
        </mxCell>
        <mxCell id="uaeYe4_tYvJVXIgmSCOc-4" value="" style="html=1;verticalAlign=bottom;endArrow=block;edgeStyle=elbowEdgeStyle;elbow=vertical;curved=0;rounded=0;" edge="1" parent="1" source="uaeYe4_tYvJVXIgmSCOc-37" target="uaeYe4_tYvJVXIgmSCOc-42">
          <mxGeometry relative="1" as="geometry">
            <mxPoint x="2357.5" y="246.9999999999999" as="sourcePoint" />
            <Array as="points">
              <mxPoint x="2455.5" y="246.9999999999999" />
            </Array>
            <mxPoint x="2552.5" y="246.9999999999999" as="targetPoint" />
          </mxGeometry>
        </mxCell>
        <mxCell id="uaeYe4_tYvJVXIgmSCOc-6" value="loginRecolector()" style="text;html=1;align=center;verticalAlign=middle;resizable=0;points=[];autosize=1;strokeColor=none;fillColor=none;" vertex="1" parent="1">
          <mxGeometry x="2570" y="290" width="110" height="30" as="geometry" />
        </mxCell>
        <mxCell id="uaeYe4_tYvJVXIgmSCOc-8" value="" style="html=1;verticalAlign=bottom;endArrow=block;edgeStyle=elbowEdgeStyle;elbow=horizontal;curved=0;rounded=0;" edge="1" parent="1" source="uaeYe4_tYvJVXIgmSCOc-41" target="uaeYe4_tYvJVXIgmSCOc-45">
          <mxGeometry relative="1" as="geometry">
            <mxPoint x="2555" y="287" as="sourcePoint" />
            <Array as="points">
              <mxPoint x="2660" y="320" />
              <mxPoint x="2590" y="287" />
            </Array>
            <mxPoint x="2565" y="282" as="targetPoint" />
          </mxGeometry>
        </mxCell>
        <mxCell id="uaeYe4_tYvJVXIgmSCOc-9" value="alt" style="shape=umlFrame;whiteSpace=wrap;html=1;pointerEvents=0;width=60;height=30;" vertex="1" parent="1">
          <mxGeometry x="2425" y="440" width="785" height="395" as="geometry" />
        </mxCell>
        <mxCell id="uaeYe4_tYvJVXIgmSCOc-11" value="selectDonante()" style="text;html=1;align=center;verticalAlign=middle;resizable=0;points=[];autosize=1;strokeColor=none;fillColor=none;" vertex="1" parent="1">
          <mxGeometry x="2763" y="358" width="110" height="30" as="geometry" />
        </mxCell>
        <mxCell id="uaeYe4_tYvJVXIgmSCOc-16" value="" style="html=1;verticalAlign=bottom;endArrow=block;edgeStyle=elbowEdgeStyle;elbow=vertical;curved=0;rounded=0;" edge="1" parent="1" target="uaeYe4_tYvJVXIgmSCOc-48">
          <mxGeometry relative="1" as="geometry">
            <mxPoint x="2765" y="487" as="sourcePoint" />
            <Array as="points">
              <mxPoint x="2980" y="487" />
            </Array>
            <mxPoint x="3090" y="487" as="targetPoint" />
          </mxGeometry>
        </mxCell>
        <mxCell id="uaeYe4_tYvJVXIgmSCOc-17" value="createWrongDirectionTicket()" style="text;html=1;align=center;verticalAlign=middle;resizable=0;points=[];autosize=1;strokeColor=none;fillColor=none;" vertex="1" parent="1">
          <mxGeometry x="2770" y="457" width="180" height="30" as="geometry" />
        </mxCell>
        <mxCell id="uaeYe4_tYvJVXIgmSCOc-26" value="" style="endArrow=none;dashed=1;html=1;dashPattern=1 3;strokeWidth=2;rounded=0;entryX=-0.003;entryY=0.343;entryDx=0;entryDy=0;entryPerimeter=0;" edge="1" parent="1">
          <mxGeometry width="50" height="50" relative="1" as="geometry">
            <mxPoint x="3210" y="534" as="sourcePoint" />
            <mxPoint x="2423.45" y="534.415" as="targetPoint" />
            <Array as="points">
              <mxPoint x="2811.45" y="534.59" />
            </Array>
          </mxGeometry>
        </mxCell>
        <mxCell id="uaeYe4_tYvJVXIgmSCOc-35" value="[Missing Donante&lt;span style=&quot;background-color: initial;&quot;&gt;]&lt;/span&gt;" style="text;html=1;align=center;verticalAlign=middle;resizable=0;points=[];autosize=1;strokeColor=none;fillColor=none;" vertex="1" parent="1">
          <mxGeometry x="2425" y="537" width="120" height="30" as="geometry" />
        </mxCell>
        <mxCell id="uaeYe4_tYvJVXIgmSCOc-36" value="LandingPage" style="shape=umlLifeline;perimeter=lifelinePerimeter;whiteSpace=wrap;html=1;container=0;dropTarget=0;collapsible=0;recursiveResize=0;outlineConnect=0;portConstraint=eastwest;newEdgeStyle={&quot;edgeStyle&quot;:&quot;elbowEdgeStyle&quot;,&quot;elbow&quot;:&quot;vertical&quot;,&quot;curved&quot;:0,&quot;rounded&quot;:0};" vertex="1" parent="1">
          <mxGeometry x="2290" y="97" width="110" height="910" as="geometry" />
        </mxCell>
        <mxCell id="uaeYe4_tYvJVXIgmSCOc-37" value="" style="html=1;points=[];perimeter=orthogonalPerimeter;outlineConnect=0;targetShapes=umlLifeline;portConstraint=eastwest;newEdgeStyle={&quot;edgeStyle&quot;:&quot;elbowEdgeStyle&quot;,&quot;elbow&quot;:&quot;vertical&quot;,&quot;curved&quot;:0,&quot;rounded&quot;:0};" vertex="1" parent="uaeYe4_tYvJVXIgmSCOc-36">
          <mxGeometry x="50" y="50" width="10" height="110" as="geometry" />
        </mxCell>
        <mxCell id="uaeYe4_tYvJVXIgmSCOc-38" value="dispatch" style="html=1;verticalAlign=bottom;startArrow=oval;endArrow=block;startSize=8;edgeStyle=elbowEdgeStyle;elbow=vertical;curved=0;rounded=0;" edge="1" parent="uaeYe4_tYvJVXIgmSCOc-36" target="uaeYe4_tYvJVXIgmSCOc-37">
          <mxGeometry x="-0.1668" relative="1" as="geometry">
            <mxPoint x="-15" y="60" as="sourcePoint" />
            <mxPoint x="45" y="60.10344827586209" as="targetPoint" />
            <mxPoint as="offset" />
          </mxGeometry>
        </mxCell>
        <mxCell id="uaeYe4_tYvJVXIgmSCOc-39" value="" style="html=1;points=[];perimeter=orthogonalPerimeter;outlineConnect=0;targetShapes=umlLifeline;portConstraint=eastwest;newEdgeStyle={&quot;edgeStyle&quot;:&quot;elbowEdgeStyle&quot;,&quot;elbow&quot;:&quot;vertical&quot;,&quot;curved&quot;:0,&quot;rounded&quot;:0};" vertex="1" parent="uaeYe4_tYvJVXIgmSCOc-36">
          <mxGeometry x="60" y="90" width="10" height="30" as="geometry" />
        </mxCell>
        <mxCell id="uaeYe4_tYvJVXIgmSCOc-40" value="" style="html=1;verticalAlign=bottom;endArrow=block;edgeStyle=elbowEdgeStyle;elbow=horizontal;curved=0;rounded=0;" edge="1" parent="uaeYe4_tYvJVXIgmSCOc-36" source="uaeYe4_tYvJVXIgmSCOc-37" target="uaeYe4_tYvJVXIgmSCOc-39">
          <mxGeometry relative="1" as="geometry">
            <mxPoint x="80" y="70" as="sourcePoint" />
            <Array as="points">
              <mxPoint x="90" y="70" />
            </Array>
            <mxPoint x="275" y="70" as="targetPoint" />
          </mxGeometry>
        </mxCell>
        <mxCell id="uaeYe4_tYvJVXIgmSCOc-41" value="LoginPage" style="shape=umlLifeline;perimeter=lifelinePerimeter;whiteSpace=wrap;html=1;container=0;dropTarget=0;collapsible=0;recursiveResize=0;outlineConnect=0;portConstraint=eastwest;newEdgeStyle={&quot;edgeStyle&quot;:&quot;elbowEdgeStyle&quot;,&quot;elbow&quot;:&quot;vertical&quot;,&quot;curved&quot;:0,&quot;rounded&quot;:0};size=40;" vertex="1" parent="1">
          <mxGeometry x="2510" y="100" width="125" height="907" as="geometry" />
        </mxCell>
        <mxCell id="uaeYe4_tYvJVXIgmSCOc-42" value="" style="html=1;points=[];perimeter=orthogonalPerimeter;outlineConnect=0;targetShapes=umlLifeline;portConstraint=eastwest;newEdgeStyle={&quot;edgeStyle&quot;:&quot;elbowEdgeStyle&quot;,&quot;elbow&quot;:&quot;vertical&quot;,&quot;curved&quot;:0,&quot;rounded&quot;:0};" vertex="1" parent="uaeYe4_tYvJVXIgmSCOc-41">
          <mxGeometry x="50" y="140" width="10" height="680" as="geometry" />
        </mxCell>
        <mxCell id="uaeYe4_tYvJVXIgmSCOc-45" value="RecolectionPage" style="shape=umlLifeline;perimeter=lifelinePerimeter;whiteSpace=wrap;html=1;container=0;dropTarget=0;collapsible=0;recursiveResize=0;outlineConnect=0;portConstraint=eastwest;newEdgeStyle={&quot;edgeStyle&quot;:&quot;elbowEdgeStyle&quot;,&quot;elbow&quot;:&quot;vertical&quot;,&quot;curved&quot;:0,&quot;rounded&quot;:0};" vertex="1" parent="1">
          <mxGeometry x="2710" y="100" width="110" height="920" as="geometry" />
        </mxCell>
        <mxCell id="uaeYe4_tYvJVXIgmSCOc-46" value="" style="html=1;points=[];perimeter=orthogonalPerimeter;outlineConnect=0;targetShapes=umlLifeline;portConstraint=eastwest;newEdgeStyle={&quot;edgeStyle&quot;:&quot;elbowEdgeStyle&quot;,&quot;elbow&quot;:&quot;vertical&quot;,&quot;curved&quot;:0,&quot;rounded&quot;:0};" vertex="1" parent="uaeYe4_tYvJVXIgmSCOc-45">
          <mxGeometry x="50" y="210" width="10" height="600" as="geometry" />
        </mxCell>
        <mxCell id="uaeYe4_tYvJVXIgmSCOc-47" value="TicketSoporteDatabase" style="shape=umlLifeline;perimeter=lifelinePerimeter;whiteSpace=wrap;html=1;container=0;dropTarget=0;collapsible=0;recursiveResize=0;outlineConnect=0;portConstraint=eastwest;newEdgeStyle={&quot;edgeStyle&quot;:&quot;elbowEdgeStyle&quot;,&quot;elbow&quot;:&quot;vertical&quot;,&quot;curved&quot;:0,&quot;rounded&quot;:0};" vertex="1" parent="1">
          <mxGeometry x="2900" y="100" width="150" height="907" as="geometry" />
        </mxCell>
        <mxCell id="uaeYe4_tYvJVXIgmSCOc-48" value="" style="html=1;points=[];perimeter=orthogonalPerimeter;outlineConnect=0;targetShapes=umlLifeline;portConstraint=eastwest;newEdgeStyle={&quot;edgeStyle&quot;:&quot;elbowEdgeStyle&quot;,&quot;elbow&quot;:&quot;vertical&quot;,&quot;curved&quot;:0,&quot;rounded&quot;:0};" vertex="1" parent="uaeYe4_tYvJVXIgmSCOc-47">
          <mxGeometry x="70" y="370" width="10" height="160" as="geometry" />
        </mxCell>
        <mxCell id="EOZu0p530FmktWK0IdCz-12" value="loop" style="shape=umlFrame;whiteSpace=wrap;html=1;pointerEvents=0;width=60;height=30;" vertex="1" parent="1">
          <mxGeometry x="2400" y="350" width="850" height="530" as="geometry" />
        </mxCell>
        <mxCell id="EOZu0p530FmktWK0IdCz-13" value="" style="html=1;verticalAlign=bottom;endArrow=block;edgeStyle=elbowEdgeStyle;elbow=horizontal;curved=0;rounded=0;" edge="1" parent="1">
          <mxGeometry relative="1" as="geometry">
            <mxPoint x="2770" y="380" as="sourcePoint" />
            <Array as="points">
              <mxPoint x="2805" y="380" />
            </Array>
            <mxPoint x="2780" y="415" as="targetPoint" />
          </mxGeometry>
        </mxCell>
        <mxCell id="EOZu0p530FmktWK0IdCz-15" value="" style="html=1;points=[];perimeter=orthogonalPerimeter;outlineConnect=0;targetShapes=umlLifeline;portConstraint=eastwest;newEdgeStyle={&quot;edgeStyle&quot;:&quot;elbowEdgeStyle&quot;,&quot;elbow&quot;:&quot;vertical&quot;,&quot;curved&quot;:0,&quot;rounded&quot;:0};" vertex="1" parent="1">
          <mxGeometry x="2770" y="400" width="10" height="30" as="geometry" />
        </mxCell>
        <mxCell id="EOZu0p530FmktWK0IdCz-17" value="" style="endArrow=none;dashed=1;html=1;dashPattern=1 3;strokeWidth=2;rounded=0;exitX=1.002;exitY=0.194;exitDx=0;exitDy=0;exitPerimeter=0;entryX=-0.003;entryY=0.343;entryDx=0;entryDy=0;entryPerimeter=0;" edge="1" parent="1">
          <mxGeometry width="50" height="50" relative="1" as="geometry">
            <mxPoint x="3206.5" y="661.1800000000001" as="sourcePoint" />
            <mxPoint x="2429.5" y="660.005" as="targetPoint" />
          </mxGeometry>
        </mxCell>
        <mxCell id="EOZu0p530FmktWK0IdCz-19" value="" style="html=1;verticalAlign=bottom;endArrow=block;edgeStyle=elbowEdgeStyle;elbow=vertical;curved=0;rounded=0;entryX=1.033;entryY=0.974;entryDx=0;entryDy=0;entryPerimeter=0;" edge="1" parent="1" target="EOZu0p530FmktWK0IdCz-20">
          <mxGeometry relative="1" as="geometry">
            <mxPoint x="2770" y="572.91" as="sourcePoint" />
            <Array as="points" />
            <mxPoint x="2980" y="573" as="targetPoint" />
          </mxGeometry>
        </mxCell>
        <mxCell id="EOZu0p530FmktWK0IdCz-20" value="createDonanteAusenteTicket()" style="text;html=1;align=center;verticalAlign=middle;resizable=0;points=[];autosize=1;strokeColor=none;fillColor=none;" vertex="1" parent="1">
          <mxGeometry x="2770" y="542.91" width="190" height="30" as="geometry" />
        </mxCell>
        <mxCell id="EOZu0p530FmktWK0IdCz-21" value="&lt;span style=&quot;color: rgb(0, 0, 0); font-family: Helvetica; font-size: 12px; font-style: normal; font-variant-ligatures: normal; font-variant-caps: normal; font-weight: 400; letter-spacing: normal; orphans: 2; text-align: center; text-indent: 0px; text-transform: none; widows: 2; word-spacing: 0px; -webkit-text-stroke-width: 0px; white-space: nowrap; background-color: rgb(251, 251, 251); text-decoration-thickness: initial; text-decoration-style: initial; text-decoration-color: initial; display: inline !important; float: none;&quot;&gt;[Direction not Found]&lt;/span&gt;" style="text;whiteSpace=wrap;html=1;" vertex="1" parent="1">
          <mxGeometry x="2435" y="470" width="110" height="40" as="geometry" />
        </mxCell>
        <mxCell id="EOZu0p530FmktWK0IdCz-22" value="&lt;span style=&quot;color: rgb(0, 0, 0); font-family: Helvetica; font-size: 12px; font-style: normal; font-variant-ligatures: normal; font-variant-caps: normal; font-weight: 400; letter-spacing: normal; orphans: 2; text-align: center; text-indent: 0px; text-transform: none; widows: 2; word-spacing: 0px; -webkit-text-stroke-width: 0px; white-space: nowrap; background-color: rgb(251, 251, 251); text-decoration-thickness: initial; text-decoration-style: initial; text-decoration-color: initial; display: inline !important; float: none;&quot;&gt;[Recolection sucess&lt;/span&gt;&lt;span style=&quot;text-wrap: nowrap; text-align: center;&quot;&gt;full&lt;/span&gt;&lt;span style=&quot;background-color: initial; text-wrap: nowrap; text-align: center;&quot;&gt;]&lt;/span&gt;" style="text;whiteSpace=wrap;html=1;" vertex="1" parent="1">
          <mxGeometry x="2431" y="690.08" width="130" height="40" as="geometry" />
        </mxCell>
        <mxCell id="EOZu0p530FmktWK0IdCz-23" value="BidonesDatabase" style="shape=umlLifeline;perimeter=lifelinePerimeter;whiteSpace=wrap;html=1;container=0;dropTarget=0;collapsible=0;recursiveResize=0;outlineConnect=0;portConstraint=eastwest;newEdgeStyle={&quot;edgeStyle&quot;:&quot;elbowEdgeStyle&quot;,&quot;elbow&quot;:&quot;vertical&quot;,&quot;curved&quot;:0,&quot;rounded&quot;:0};" vertex="1" parent="1">
          <mxGeometry x="3060" y="100" width="150" height="907" as="geometry" />
        </mxCell>
        <mxCell id="EOZu0p530FmktWK0IdCz-24" value="" style="html=1;points=[];perimeter=orthogonalPerimeter;outlineConnect=0;targetShapes=umlLifeline;portConstraint=eastwest;newEdgeStyle={&quot;edgeStyle&quot;:&quot;elbowEdgeStyle&quot;,&quot;elbow&quot;:&quot;vertical&quot;,&quot;curved&quot;:0,&quot;rounded&quot;:0};" vertex="1" parent="EOZu0p530FmktWK0IdCz-23">
          <mxGeometry x="70" y="570" width="10" height="150" as="geometry" />
        </mxCell>
        <mxCell id="EOZu0p530FmktWK0IdCz-25" value="" style="html=1;verticalAlign=bottom;endArrow=block;edgeStyle=elbowEdgeStyle;elbow=vertical;curved=0;rounded=0;" edge="1" parent="1">
          <mxGeometry relative="1" as="geometry">
            <mxPoint x="2770" y="720.0799999999999" as="sourcePoint" />
            <Array as="points">
              <mxPoint x="3140" y="720" />
            </Array>
            <mxPoint x="3130" y="720" as="targetPoint" />
          </mxGeometry>
        </mxCell>
        <mxCell id="EOZu0p530FmktWK0IdCz-26" value="scanAndUpdateState()" style="text;html=1;align=center;verticalAlign=middle;resizable=0;points=[];autosize=1;strokeColor=none;fillColor=none;" vertex="1" parent="1">
          <mxGeometry x="2770" y="690.0799999999999" width="140" height="30" as="geometry" />
        </mxCell>
        <mxCell id="EOZu0p530FmktWK0IdCz-28" style="edgeStyle=elbowEdgeStyle;rounded=0;orthogonalLoop=1;jettySize=auto;html=1;elbow=vertical;curved=0;" edge="1" parent="1">
          <mxGeometry relative="1" as="geometry">
            <mxPoint x="3130" y="769.9988235294118" as="sourcePoint" />
            <mxPoint x="2770" y="769.9988235294118" as="targetPoint" />
          </mxGeometry>
        </mxCell>
        <mxCell id="EOZu0p530FmktWK0IdCz-29" value="showSucessful()" style="text;html=1;align=center;verticalAlign=middle;resizable=0;points=[];autosize=1;strokeColor=none;fillColor=none;" vertex="1" parent="1">
          <mxGeometry x="2763" y="738" width="110" height="30" as="geometry" />
        </mxCell>
        <mxCell id="EOZu0p530FmktWK0IdCz-30" style="edgeStyle=elbowEdgeStyle;rounded=0;orthogonalLoop=1;jettySize=auto;html=1;elbow=vertical;curved=0;" edge="1" parent="1">
          <mxGeometry relative="1" as="geometry">
            <mxPoint x="2970" y="622" as="sourcePoint" />
            <mxPoint x="2770" y="621.9988235294118" as="targetPoint" />
          </mxGeometry>
        </mxCell>
        <mxCell id="EOZu0p530FmktWK0IdCz-31" value="showSucessful()" style="text;html=1;align=center;verticalAlign=middle;resizable=0;points=[];autosize=1;strokeColor=none;fillColor=none;" vertex="1" parent="1">
          <mxGeometry x="2763" y="590" width="110" height="30" as="geometry" />
        </mxCell>
        <mxCell id="EOZu0p530FmktWK0IdCz-32" style="edgeStyle=elbowEdgeStyle;rounded=0;orthogonalLoop=1;jettySize=auto;html=1;elbow=vertical;curved=0;" edge="1" parent="1">
          <mxGeometry relative="1" as="geometry">
            <mxPoint x="2970" y="522" as="sourcePoint" />
            <mxPoint x="2770" y="521.9988235294118" as="targetPoint" />
          </mxGeometry>
        </mxCell>
        <mxCell id="EOZu0p530FmktWK0IdCz-33" value="showSucessful()" style="text;html=1;align=center;verticalAlign=middle;resizable=0;points=[];autosize=1;strokeColor=none;fillColor=none;" vertex="1" parent="1">
          <mxGeometry x="2763" y="490" width="110" height="30" as="geometry" />
        </mxCell>
      </root>
    </mxGraphModel>
  </diagram>
</mxfile>
